/* XPM */
static char *c78e7e7548d2493189a47eefcfc8537fpxrKuxYXNeXexmdn[] = {
/* columns rows colors chars-per-pixel */
"53 50 223 2 ",
"   c None",
".  c #1C1418",
"X  c #21161D",
"o  c #261C22",
"O  c #2A1D26",
"+  c #2E1E2C",
"@  c #331D2D",
"#  c #39192F",
"$  c #2B1E35",
"%  c #3B1D35",
"&  c #2E212D",
"*  c #292126",
"=  c #31212E",
"-  c #3F2A28",
";  c #2E2034",
":  c #342434",
">  c #3B2336",
",  c #34253B",
"<  c #3C2639",
"1  c #362839",
"2  c #3B2A3C",
"3  c #392936",
"4  c #441E39",
"5  c #44253C",
"6  c #4A253A",
"7  c #422D3D",
"8  c #452835",
"9  c #43303F",
"0  c #543A3F",
"q  c #502F29",
"w  c #602724",
"e  c #7D4B1B",
"r  c #6D493E",
"t  c #342642",
"y  c #3D2D42",
"u  c #3B2D4C",
"i  c #392643",
"p  c #3E3253",
"a  c #3E3050",
"s  c #5B1E48",
"d  c #432D44",
"f  c #4B2748",
"g  c #54264C",
"h  c #443243",
"j  c #4A3544",
"k  c #45324B",
"l  c #4B344B",
"z  c #4C394A",
"x  c #473A45",
"c  c #553749",
"v  c #4E2C55",
"b  c #5A2A53",
"n  c #562D54",
"m  c #423457",
"M  c #4C3552",
"N  c #4E3855",
"B  c #423559",
"V  c #4A3758",
"C  c #523C52",
"Z  c #53345D",
"A  c #543A5C",
"S  c #5A3857",
"D  c #642D5B",
"F  c #69355B",
"G  c #753055",
"H  c #4B3A64",
"J  c #593B65",
"K  c #5D3C6B",
"L  c #553865",
"P  c #673363",
"I  c #6B3264",
"U  c #6A3768",
"Y  c #73356B",
"T  c #76366B",
"R  c #633D73",
"E  c #683E79",
"W  c #7B3673",
"Q  c #7C3A73",
"!  c #732866",
"~  c #584656",
"^  c #634759",
"/  c #7B425A",
"(  c #65545E",
")  c #584577",
"_  c #5D5163",
"`  c #6D426A",
"'  c #6D4B6D",
"]  c #674765",
"[  c #695567",
"{  c #6D4879",
"}  c #6C5573",
"|  c #6F5878",
" . c #735C7E",
".. c #755E76",
"X. c #7B4D6F",
"o. c #7B667C",
"O. c #7B606F",
"+. c #85311B",
"@. c #881938",
"#. c #9E1E39",
"$. c #9C2534",
"%. c #93531A",
"&. c #A35B01",
"*. c #AD4E1B",
"=. c #B86314",
"-. c #8A613E",
";. c #D05D1A",
":. c #C97B12",
">. c #E06E15",
",. c #9D194B",
"<. c #961846",
"1. c #8B1740",
"2. c #A3184B",
"3. c #BC184E",
"4. c #AA1C53",
"5. c #B31E5A",
"6. c #B91F5E",
"7. c #8B3251",
"8. c #BB225C",
"9. c #AD264C",
"0. c #863979",
"q. c #972973",
"w. c #BD2162",
"e. c #BE3562",
"r. c #C61B5A",
"t. c #CE1F4B",
"y. c #F6185A",
"u. c #D0304F",
"i. c #ED1F62",
"p. c #C52368",
"a. c #C72671",
"s. c #844B48",
"d. c #906E50",
"f. c #AA6B54",
"g. c #945268",
"h. c #89577A",
"j. c #935579",
"k. c #8B486E",
"l. c #836268",
"z. c #856C7C",
"x. c #B2637B",
"c. c #F97D66",
"v. c #BC903A",
"b. c #D68D03",
"n. c #E69B03",
"m. c #E58016",
"M. c #F9AA02",
"N. c #F8B600",
"B. c #E7A00A",
"V. c #DD8B22",
"C. c #FDC701",
"Z. c #FCDA09",
"A. c #FDEB09",
"S. c #FFFD00",
"D. c #FFF000",
"F. c #FFFF1C",
"G. c #FFFB2C",
"H. c #EFC32D",
"J. c #DB9F50",
"K. c #FFF853",
"L. c #7A3E80",
"P. c #5F4781",
"I. c #684682",
"U. c #785D86",
"Y. c #6D4F92",
"T. c #75579B",
"R. c #71548E",
"E. c #7B638C",
"W. c #796285",
"Q. c #7D6492",
"!. c #7F659A",
"~. c #7F59AA",
"^. c #833B85",
"/. c #963986",
"(. c #913D95",
"). c #A63C94",
"_. c #D82D85",
"`. c #D03890",
"'. c #E63293",
"]. c #F73DAA",
"[. c #8A4283",
"{. c #95448B",
"}. c #9C4591",
"|. c #885C92",
" X c #A34896",
".X c #AC4A91",
"XX c #826583",
"oX c #82659B",
"OX c #85679B",
"+X c #8D7A8D",
"@X c #9A43AD",
"#X c #8B56AB",
"$X c #BC51AC",
"%X c #B95CA6",
"&X c #B14BA3",
"*X c #8E6AB1",
"=X c #D2639B",
"-X c #F46882",
";X c #C355B5",
":X c #C649AF",
">X c #ED4AB9",
",X c #DB68BF",
"<X c #D6588B",
"1X c #9462C3",
"2X c #9D69D1",
"3X c #A46DD0",
"4X c #AC70E4",
"5X c #B374EA",
"6X c #D759C4",
"7X c #EA57D1",
"8X c #DF7AC9",
"9X c #F566D1",
"0X c #FE5DE5",
"qX c #FB67EB",
"wX c #FF6BF7",
"eX c #E766E4",
"rX c #9A82BB",
"tX c #B19FB0",
"yX c #B39EC0",
"uX c #E5A1DF",
"iX c #FE94FB",
"pX c #FFA4FA",
"aX c #FDD0FD",
/* pixels */
"                                                                                                          ",
"                                                                                                          ",
"                                                                                                          ",
"                                                                                                          ",
"                                                                                                          ",
"                                                t B $                                                     ",
"                                              p B p t $ $                                                 ",
"                                          k B B B B a $ , i                                               ",
"                                        K H B B B B p t t t V `                                           ",
"                                      {.T.) H B H p p u t t u { }                                         ",
"                                    $X XOXT.) H p p p t t u k ' } } |  .                                  ",
"                                ;X6X;X X[.Z b n H p t o f d R ' } } |  .U.E.                              ",
"                              T  .6X$X}./.W U I b g D 4 @ U ` ' } } |  .W.E.!.!.                          ",
"                          eXqX.X~ 7X;X}.^.W I I I I F 4 . U ` ' [ } | W.W.E.!.OXOX                        ",
"                    #XQ wXwXqX7Xj uX,Xg.s.s.0.I Y Y I b X g ` ' _ [ O.o.W.E.Q.oXOX                        ",
"                  3X5X#X$XqX0X9X7.v.Z.C.N.N.n.g.0.^.g @ . * 8 ` ~ O.o.W.W.W.E.Q.OX*X                      ",
"              T.5X4X4X1XW 9X9X-XD.S.D.N.b.n.N.Z.=Xq.% d 4 + U x ~ O.h.h.z.W.E.E.oXOX                      ",
"            3X4X3X2X1XE /.6X<XZ.F.S.;.#.4.4.V.G.A.`.7X).b + ^ ] ( ~ j.h.XXz.XXU.E.Q.                      ",
"            4X2X1X*XE ^.:X:X:.S.K.M.t.p.w.w.J.M.M.pX7X/.Y % l F ' d.j.j.j.h.z.z.E.Q.yX                    ",
"            1X*X~.~.R }.&X7.C.n.u.c.'._.p.6.*.*.m.8X/.W I % , ^ ] d.f.g.j.k.X...U.W.E.                    ",
"            Y.T.Y.T.D (./.%.N.$.].iX0X'.a.w.5.,.1..XY Y Z B m l C ^ d.g.k./ / ( [ }  .                    ",
"              I.P.*Xb 0.0.:.b.4.].aXwX'.a.w.5.,.1.W P v B B B y k c ^ -./ F S ~ ~ _ [                     ",
"              K { i W 0.F n.=.3.a.'._.a.,.,.5.<.7.I I Z B p B y 7 j c r r z j c C ~ ~ +X                  ",
"              t f W W W G D.H.f.p.p.w.,.2.3.3.2..XI P L B B B p 7 9 z j 0 0 h j z C A A                   ",
"                Y Y Y 0.0.C.M.@.w.w.w.,.3.y.y.9.Y I I B B B B m i 2 h j j 0 j j l z z z                   ",
"                T Y Y :X>X>.&.@.8.w.8.4.r.y.i..XI I H p B B B p & 1 9 j j j j z z j j h z                 ",
"                   XP s %XG &.e <.5.8.e.u.r.:XQ Y K H B B B p $ & + 3 h ~ z z x j j j j 9                 ",
"                  % % W 0.I w &.+.G $.J.n.x.@X(.W U B B B t : : : = : : [ z z z j h 7 7 (                 ",
"                  n I I I I D 4 %.%.w b 4 : @X(.W b B u , , : , : 1 : : ( & h z j h 9 7 2 (               ",
"                    I I I I I I D D I I g & (.^.f + O : : , : : : : : 1 1 : : : y 9 9 7 7 7               ",
"                    D P I g I I I F I I P O ! 4 o @ 5 5 < < < > : : : 1 1 : = & = = 2 9 7 7               ",
"                    f P B k f I F I I I b @ X o % 4 5 4 5 < < > : 1 1 1 1 : : = = & & 3 7 2 ~             ",
"                    u p p B p p B d I s + o o o % 5 5 > & O O * = = 1 1 : : : : & & + + $ < 9             ",
"                    & B B B p H p $ % O O % 5 # O = = O - q 8 8 3 3 1 1 1 1 : & & & + + @ + =             ",
"                      B B B p B p u o @ 4 5 5 5 & & = = 6 6 5 8 1 1 1 1 1 1 : : & & + + & & z.            ",
"                      B H B B B u , $ % f 5 5 : & q 8 6 6 5 5 7 2 2 2 2 1 1 : : : + + + :                 ",
"                      ~ P.H p t t , , : 5 5 < @ - 7 6 d 6 d 7 d d d y 2 2 2 1 : : : & ~                   ",
"                        Y.) , , , , 1 : 7 < : : 3 2 5 d d h f f h h y k y y 1 1 : 3                       ",
"                        a 1 , , , , , @ 1 < , 1 2 2 d d f l k l l l k k x k y ~                           ",
"                            , , 1 1 , @ 1 2 1 2 9 h k k l C N N N N N N ~ k o.                            ",
"                              & , : : : 1 2 2 y y k l M N C A S A J A A tX                                ",
"                                    > 3 2 2 y d k M N A L J J A J J [                                     ",
"                                        2 y y k M V A L J K R R { XX                                      ",
"                                            k k M Z L K R R E E U.                                        ",
"                                              M Z A K R E I.I.                                            ",
"                                                Z L K R I.OX                                              ",
"                                                    R R.                                                  ",
"                                                                                                          ",
"                                                                                                          ",
"                                                                                                          "
};