/* XPM */
static char *_7983b36a4524a8df885e73702d66143oHUzEQtpgv4g0O5Q[] = {
/* columns rows colors chars-per-pixel */
"50 50 135 2 ",
"   c None",
".  c #010101",
"X  c #0B0202",
"o  c #080708",
"O  c #0B0B0B",
"+  c #130404",
"@  c #14120F",
"#  c #270607",
"$  c #32080A",
"%  c #3B090B",
"&  c #201A14",
"*  c #331719",
"=  c #1F1F20",
"-  c #221F21",
";  c #2E1F21",
":  c #232022",
">  c #282526",
",  c #2F2B22",
"<  c #2C292A",
"1  c #332223",
"2  c #312D24",
"3  c #322F31",
"4  c #363436",
"5  c #3A3335",
"6  c #393739",
"7  c #3D3B3D",
"8  c #5E0F12",
"9  c #631114",
"0  c #46382C",
"q  c #4C3D2F",
"w  c #433739",
"e  c #453E3D",
"r  c #523033",
"t  c #573639",
"y  c #782427",
"u  c #7C2528",
"i  c #6B2C30",
"p  c #622E32",
"a  c #712F33",
"s  c #7B363A",
"d  c #544539",
"f  c #624E3D",
"g  c #3F3E40",
"h  c #403E40",
"j  c #5F3E41",
"k  c #454446",
"l  c #4C4645",
"z  c #494749",
"x  c #4B4849",
"c  c #5A4F49",
"v  c #5D5443",
"b  c #5B5B5D",
"n  c #746953",
"m  c #5D5E60",
"M  c #636465",
"N  c #666769",
"B  c #6D6E71",
"V  c #76777A",
"C  c #797A7C",
"Z  c #8C191C",
"A  c #9C191E",
"S  c #961D20",
"D  c #9F1C20",
"F  c #A41D21",
"G  c #AA1E22",
"H  c #B31E23",
"J  c #BB1F24",
"K  c #85292E",
"L  c #882424",
"P  c #97282E",
"I  c #982A2F",
"U  c #9A2D32",
"Y  c #AD252B",
"T  c #A62929",
"R  c #B1272D",
"E  c #BB3232",
"W  c #C31F26",
"Q  c #C42027",
"!  c #CB2027",
"~  c #C22228",
"^  c #CD2A2E",
"/  c #D03637",
"(  c #D3433F",
")  c #826851",
"_  c #977F6B",
"`  c #997E69",
"'  c #9B7D65",
"]  c #D54F47",
"[  c #D8594F",
"{  c #DA6657",
"}  c #AF8C6D",
"|  c #AF8D70",
" . c #A69778",
".. c #A19274",
"X. c #C59A53",
"o. c #C88971",
"O. c #E29C7D",
"+. c #CFA363",
"@. c #D4A76A",
"#. c #D7AA6E",
"$. c #D8AA70",
"%. c #7C7E81",
"&. c #817E81",
"*. c #7F8082",
"=. c #818385",
"-. c #86888B",
";. c #8C8D90",
":. c #929396",
">. c #BBA28D",
",. c #9D9FA2",
"<. c #A4A6A9",
"1. c #A7A9AC",
"2. c #ADABAB",
"3. c #B1B3B6",
"4. c #D4AA87",
"5. c #DDB28C",
"6. c #EAAF8B",
"7. c #E6B785",
"8. c #EABA8B",
"9. c #E7B890",
"0. c #EDBD94",
"q. c #F0BF95",
"w. c #C1AEA1",
"e. c #E5C38B",
"r. c #F1C096",
"t. c #F6C5A0",
"y. c #EBD6AA",
"u. c #F7D0A4",
"i. c #F9DBAD",
"p. c #F4D9A5",
"a. c #FCDEB0",
"s. c #F3DCB0",
"d. c #F7E0B2",
"f. c #FDE3B4",
"g. c #FFE7B8",
/* pixels */
"                                                                                                    ",
"                                                                                                    ",
"                                                                                                    ",
"                                                                                                    ",
"                                                                                                    ",
"                                                                                                    ",
"                                                                                                    ",
"                                                                                                    ",
"                                                                                                    ",
"                                                                                                    ",
"                                                                                                    ",
"                                                                                                    ",
"                                                                                                    ",
"                                                                                                    ",
"                                                                                                    ",
"                                                                                                    ",
"                                                                                                    ",
"                                            . . . . . .                                             ",
"                                          v d.d.d.d.d.d..                                           ",
"                                        2 g.g.g.g.g.g.g..                                           ",
"                                        2 i.q.r.q.r.g.g.d..                                         ",
"                                      @ f.0.q.r.0.r.g.g.g.y..                                       ",
"                                      @ a.| ' r.d 9.r.g.g.y..                                       ",
"                                      @ f.q.q.q.q.q.7.g.a.y..                                       ",
"                                      @ i.7.r.r.r.r.X.g.r.s.v                                       ",
"                      : M *.*.*.*.b o ..p.@.r.r.r.$.X.u.r.g.y.n                                     ",
"                    = C :.3.3.3.3.V =.g.f.e.+.+.+.X.7.r.f.g.g. .                                    ",
"                    = :.;.1.1.1.1.B <.2 t.{ $.X.X.8.2.2./ / / L                                     ",
"                    : :.;.1.1.1.1.B <.O 1.w.q.q.0.2.=.=.&.5 5 i 8                                   ",
"                      < ;.1.1.1.1.B o <.=.*.>.q.r.g *.*.6 4 4 4 K %                                 ",
"                        . . . . . . 0.7 =.N ` q.l z z 4 z 5 c q.r.0                                 ",
"                        o } r.0.z z z 5.z z 7 4 k z 4 k z h r.r.r.q                                 ",
"                        ) r.r.r.4 4 4 e 4.z g h z k k k z h 6.5.5.5.&                               ",
"                        ) r.r.r.6 4 4 e o.k h h z b ,.z h i R h 5 5 o                               ",
"                        f 4.r.r.: - - ; Y 7 z k k C %.M h W R g 6 4 o                               ",
"                          d f f       + J a h z g g m 4 l W Y w g 6 o                               ",
"                            .         + W U g 6 h ;.6 6 7 ^ O.` g 4 o                               ",
"                                      + W u g k :.-.C 4 5 T q.9.5.5.E X                             ",
"                                      + W y 6 4 6 %.6 z k F ] q.0.q./ X                             ",
"                                      + W U 7 h z k - 4 - 5 A [ q.] ! X                             ",
"                                        # U 7 g 6 : 5 & 4 * F ! ! ! W X                             ",
"                                        # U 4 7 > 5 > 4 : 5 F ! H W ! +                             ",
"                                        # U 7 h 4 ~ 4 : 4 1 W G ! G W ! .                           ",
"                                        # P 3 4 < W < 6 < w Y G W G W ! $                           ",
"                                        # U k k g ~ s h e z j J J G W W W X                         ",
"                                        # I 7 5 6 F W 6 4 7 t H H J H ! W .                         ",
"                                          * 4 4 6 S $ 5 4 4 r R 9 $ Z ! ! F .                       ",
"                                        o 4 4 4 4 + . 6 5 5 5 1 +   + + + +                         ",
"                                        O 4 4 4 4 . . 4 4 4 4 :                                     ",
"                                          . . . .     . . . . .                                     "
};