/* XPM */
static char *result[] = {
/* columns rows colors chars-per-pixel */
"50 50 63 1 ",
"  c #3D93F3",
". c #4196F4",
"X c #459BF4",
"o c #499EF5",
"O c #4DA3F6",
"+ c #51A6F6",
"@ c #54AAF7",
"# c #5AADF7",
"$ c #57ABF8",
"% c #5CAEF8",
"& c #57B0F7",
"* c #5BB2F7",
"= c #5DB3F8",
"- c #5EB9F8",
"; c #64B3F7",
": c #63B5F9",
"> c #6AB7F9",
", c #64BAF9",
"< c #6BBCFA",
"1 c #72BDF9",
"2 c #65C2F9",
"3 c #6CC3FA",
"4 c #6ECAFA",
"5 c #74C4FB",
"6 c #7AC5FB",
"7 c #73CBFB",
"8 c #7CCCFC",
"9 c #75D3FC",
"0 c #7BD3FC",
"q c #75DBFD",
"w c #7AD9FD",
"e c #7EE4FE",
"r c #82C6FC",
"t c #82CEFC",
"y c #89CCFC",
"u c #84D3FD",
"i c #8CD5FD",
"p c #84DAFD",
"a c #8CD9FD",
"s c #93D5FD",
"d c #9BD7FD",
"f c #93DBFE",
"g c #9ADDFE",
"h c #A2DEFD",
"j c #81E3FE",
"k c #8BE4FE",
"l c #84ECFF",
"z c #93E3FE",
"x c #9CE1FE",
"c c #92EBFF",
"v c #A3E3FF",
"b c #ABE6FF",
"n c #A3EAFF",
"m c #ACEAFF",
"M c #B1E7FE",
"N c #B3EAFF",
"B c #BAEEFF",
"V c #B3F2FF",
"C c #C4F2FF",
"Z c #CBF5FF",
"A c #D0F6FF",
"S c #D4F9FF",
"D c None",
/* pixels */
"DDDDDDDDDDDDDDDDDDDDDDDDDDDDDDDDDDDDDDDDDDDDDDDDDD",
"DDDDDDDDDDDDDDDDDDDDDDDDDDDDDDDDDDDDDDDDDDDDDDDDDD",
"DDDDDDDDDDDDDDDDDDDDDDDDDDDDDDDDDDDDDDDDDDDDDDDDDD",
"DDDDDDDDDDDDDDDDDDDDDDDDDDDDDDDDDDDDDDDDDDDDDDDDDD",
"DDDDDDDDDDDDDDDDDDDDDDDDDDDDDDDDDDDDDDDDDDDDDDDDDD",
"DDDDDDDDDDDDDDDDD ,DD586DD DDDD#35DDDDDDDDDDDDDDDD",
"DDDDDDDDDDDDDDD Xo@#$6086o&=O  @3itDDDDDDDDDDDDDDD",
"DDDDDDDDDDDDDD .<88y63=44s,gu&=;:36tDDDDDDDDDDDDDD",
"DDDDDDDDDDDDD   *vu7:8NNMxviifaxDD@@6 DDDDDDDDDDDD",
"DDDDDDDDDDD+ .O<b0w4866i@5u0fsg3<   =< DDDDDDDDDDD",
"DDDDDDDDDD:X*O9Na7pfg#1 D357#,858<5@Oa  DDDDDDDDDD",
"DDDDDDDDDD6+<;CMffztOo DDD85:,229fMi#,5XDDDDDDDDDD",
"DDDDDDDD  ,-5>v7:w@.D, DDDDDD  <$xmNs5,6+ DDDDDDDD",
"DDDDDD #.O,-66b-@w  DDDDDDDDDDD 6,imbbs=#5*,DDDDDD",
"DDDDDD* .53,vtg5  DDDDDDDDDDDDDDD<*<tvN3O*s75DDDDD",
"DDDDD o.O34fug,5 DDDDDDDDDDDDDDDD,653hBi+5x85.DDDD",
"DDDDD %D@aM0uf5DDDDDDDDDDDDDDDDDD%83uiNb+*ua&DDDDD",
"DDDDD :o%v63aODDDDDDDDDDDDDDDDDDDD<8igvg7@@g. DDDD",
"DDDDD <+,6&wt DDDDDDDDDDDDDDDDDDDDD%<0vaM2OO@ DDDD",
"DDDDD o<15$w* DDDDDDDDDDDDDDDDDDDDDDDOjVvf&.O DDDD",
"DDDDD  :6:,c# DDDDDDDDDDDDDDDDDDDDDDD,4mcn@ ..DDDD",
"DDDDDDX66xMj,.DDDDDDDDDDDDDDDDDDDDDDD:,9mi5.OXDDDD",
"DDDDDDX$rvxc,oDDDDDDDDDDDDDDDDDDDDDDDD84u<8%:oDDDD",
"DDDDDDX*vgzc0$DDDDDDDDDDDDDDDDDDDDDDDD5ufio;@ODDDD",
"DDD DD 8vuxjj,DDDDDDDDDDDDDDDDDDDDDDDD<w0so56$DDDD",
"DDDDDD.6vuzj0:DDDDDDDDDDDDDDDDDDDDDDD#<7sa3av* DDD",
"DDDD D+6sik9,ODDDDDDDDDDDDDDDDDDDDDDDD67tf2sM<D DD",
"DDDD O8O6xw+O DDDDDDDDDDDDDDDDDDDDDDDDO&4g8Mu$D DD",
"DDDD,. +6a&e;. DDDDDDDDDDDDDDDDDDDDDDD&*=kfv<%DDDD",
"DDDD<  +sxw04O  DDDDDDDDDDDDDDDDDDDDDD:,ui7fO DDDD",
"DDDD DXo;bnw8*  DDDDDDDDDDDDDDDDDDDDDDu,v&0s.DDDDD",
"DDDD$D<.hdB9w2   DDDDDDDDDDDDDDDDDDDDo@uf<u3O DDDD",
"DDDD5 5 u:v33,O=+DDDDDDDDDDDDDDDDDDDD33ilvb,O DDDD",
"DDDDD*o5t3gz9q+OODDDDDDDDDDDDDDDDDDD+4fBkuv=:DDDDD",
"DDDDD5 6$vMZ0z-93%,    DDDDDDDDD6DD O89Bbuu+  DDDD",
"DDDDD=+ *5vvN-6704 D6::2DDDDDDDDDD: @3iNs<<@ DDDDD",
"DDDDDD.6 o6sby5kztX, o:0&DDDDDDD*z63<vvf5+# DDDDDD",
"DDDDDDDOu1fNN#3@t,7so6u08,94&8 #4a6@iMM*Oo< DDDDDD",
"DDDDDDDDo*Osu+%<Xgs8OivCx7wf8wimmmpmfb8@..3.DDDDDD",
"DDDDDDDDDD 5+6.+*68vutCBmVCSZa<7ZZhN83,o  O DDDDDD",
"DDDDDDDDDD  ;6  Xoo.#o1gtxZVB66sBprv,$o   <DDDDDDD",
"DDDDDDDDDDD .*        .1@OpAit8bMm<6+X .O+DDDDDDDD",
"DDDDDDDDDDDDD5O  DD  DO. X66<oo$i8@XD .DDDDDDDDDDD",
"DDDDDDDDDDDDD+u,.D DDDO  ut.    XODDDDDDDDDDDDDDDD",
"DDDDDDDDDDDDDDooO   .  #@6 DDDD   DDDDDDDDDDDDDDDD",
"DDDDDDDDDDDDDDDD    <   XX DDDDDDDDDDDDDDDDDDDDDDD",
"DDDDDDDDDDDDDDDDDDDDDDDDDDDDDDDDDDDDDDDDDDDDDDDDDD",
"DDDDDDDDDDDDDDDDDDDDDDDDDDDDDDDDDDDDDDDDDDDDDDDDDD",
"DDDDDDDDDDDDDDDDDDDDDDDDDDDDDDDDDDDDDDDDDDDDDDDDDD",
"DDDDDDDDDDDDDDDDDDDDDDDDDDDDDDDDDDDDDDDDDDDDDDDDDD"
};