/* XPM */
static char *pngwing_com__3_1664029104[] = {
/* columns rows colors chars-per-pixel */
"56 50 239 2 ",
"   c #0E0E4B",
".  c #0E1256",
"X  c #0E1B57",
"o  c #0F125B",
"O  c #0E1D5D",
"+  c #15155A",
"@  c #12135C",
"#  c #111A5B",
"$  c #0D1E63",
"%  c #0F1E69",
"&  c #121562",
"*  c #1B1664",
"=  c #111D65",
"-  c #191A66",
";  c #1B1769",
":  c #101D6B",
">  c #1C196C",
",  c #131E72",
"<  c #1D1C73",
"1  c #171D79",
"2  c #1C1E7A",
"3  c #201A67",
"4  c #21196D",
"5  c #221C72",
"6  c #261D78",
"7  c #0F2067",
"8  c #0F2168",
"9  c #112265",
"0  c #182567",
"q  c #12246D",
"w  c #152E6C",
"e  c #17346D",
"r  c #122472",
"t  c #112A73",
"y  c #15277B",
"u  c #192779",
"i  c #132A7D",
"p  c #163474",
"a  c #1B3575",
"s  c #13337B",
"d  c #17387C",
"f  c #1A3B7D",
"g  c #232469",
"h  c #212174",
"j  c #24227B",
"k  c #29267B",
"l  c #30277D",
"z  c #263678",
"x  c #291F82",
"c  c #1D2382",
"v  c #142C81",
"b  c #1B2B83",
"n  c #1B2B8D",
"m  c #143582",
"M  c #183685",
"N  c #183A84",
"B  c #16348B",
"V  c #18368A",
"C  c #16398C",
"Z  c #1A3C8C",
"A  c #1E2F91",
"S  c #173692",
"D  c #1A3591",
"F  c #1A3C93",
"G  c #1A3C9C",
"H  c #242A8B",
"J  c #292888",
"K  c #342A88",
"L  c #263688",
"P  c #363988",
"I  c #2A2F90",
"U  c #3B2F93",
"Y  c #233494",
"T  c #2B3492",
"R  c #233C94",
"E  c #293A97",
"W  c #2B3C9B",
"Q  c #333395",
"!  c #373A9A",
"~  c #1C3FA1",
"^  c #483A9A",
"/  c #493DA1",
"(  c #1C4183",
")  c #1A418D",
"_  c #1F488D",
"`  c #1B4493",
"'  c #1E4A92",
"]  c #1C449B",
"[  c #1E499D",
"{  c #25478B",
"}  c #30498E",
"|  c #224295",
" . c #214D93",
".. c #27469A",
"X. c #2C449E",
"o. c #224D9D",
"O. c #364998",
"+. c #275396",
"@. c #23539C",
"#. c #36579E",
"$. c #1D43A4",
"%. c #1F4BA2",
"&. c #1E46A9",
"*. c #1E48AA",
"=. c #2744A4",
"-. c #214EA4",
";. c #2C4CA4",
":. c #2146AA",
">. c #224BAB",
",. c #3244A3",
"<. c #3747A5",
"1. c #3B4DAB",
"2. c #2353A4",
"3. c #2956A7",
"4. c #2352AB",
"5. c #275AAB",
"6. c #295DAD",
"7. c #3757AA",
"8. c #3454AC",
"9. c #274EB1",
"0. c #2455B2",
"q. c #2B52B4",
"w. c #275AB2",
"e. c #2A5DB3",
"r. c #2A5DB8",
"t. c #385AB5",
"y. c #3A5EBB",
"u. c #2B62A2",
"i. c #2D64AC",
"p. c #2E69AE",
"a. c #356BAC",
"s. c #2B62B4",
"d. c #2F6AB2",
"f. c #2C64BB",
"g. c #2E6ABD",
"h. c #3765B7",
"j. c #316DB4",
"k. c #3D62BD",
"l. c #316DBB",
"z. c #3874B7",
"x. c #3573BC",
"c. c #4B4B94",
"v. c #4C449A",
"b. c #52439C",
"n. c #55489F",
"m. c #455599",
"M. c #4647A9",
"N. c #594BA4",
"B. c #5A4DA5",
"V. c #4557A7",
"C. c #4B5AAB",
"Z. c #4A4EB1",
"A. c #4757B3",
"S. c #5455B7",
"D. c #4964AD",
"F. c #4668B7",
"G. c #4364BE",
"H. c #536DB0",
"J. c #4774BA",
"K. c #5974BC",
"L. c #355CC2",
"P. c #395FC5",
"I. c #2E69C4",
"U. c #2E6AC7",
"Y. c #316DC4",
"T. c #3D68C5",
"R. c #316ECC",
"E. c #3474C3",
"W. c #3779C5",
"Q. c #3473CB",
"!. c #367ACD",
"~. c #397DCC",
"^. c #3474D2",
"/. c #3679D3",
"(. c #397DD3",
"). c #3476DC",
"_. c #3679DC",
"`. c #397EDA",
"'. c #3679E1",
"]. c #397EE4",
"[. c #5C5AC0",
"{. c #4669C7",
"}. c #5869C7",
"|. c #4A74CA",
" X c #5779CB",
".X c #516ED4",
"XX c #4B74D8",
"oX c #5E71D6",
"OX c #5579D5",
"+X c #5679D5",
"@X c #5B7EDB",
"#X c #607ECF",
"$X c #6375DB",
"%X c #6779DF",
"&X c #3C82CB",
"*X c #3B82D5",
"=X c #3B83DB",
"-X c #3C85E1",
";X c #3E89E3",
":X c #3E87EB",
">X c #3F8BF3",
",X c #4691CB",
"<X c #4287DB",
"1X c #5E81DD",
"2X c #4B9BD2",
"3X c #6284DD",
"4X c #54A9D7",
"5X c #59B8D8",
"6X c #468AE6",
"7X c #418CE6",
"8X c #418EE9",
"9X c #4392EC",
"0X c #4A96E8",
"qX c #5690ED",
"wX c #408EF4",
"eX c #4394F3",
"rX c #489CF5",
"tX c #4496FB",
"yX c #4699FA",
"uX c #499EFA",
"iX c #6486E2",
"pX c #50AAE4",
"aX c #4CA3F4",
"sX c #4EA8F5",
"dX c #4CA4FB",
"fX c #4FA9FC",
"gX c #53AAF8",
"hX c #51ADFC",
"jX c #57B7F9",
"kX c #54B4FB",
"lX c #59BDFB",
"zX c #5CC1DA",
"xX c #64C3DF",
"cX c #5CC4FB",
"vX c #5FC9FC",
"bX c #62CEFC",
"nX c #66D8FB",
"mX c #6EE6FD",
"MX c #72EDFC",
/* pixels */
"x.E.W.!.8 r r 8 r 9 i i i i 8 o o o # @ -.*.4.4.*.N ] $.$.] m v b n A Y yXuXdXdXyXH H H I Q J ,.1.,.,.W I U Q J ",
"E.W.!.(.t r r r r 9 s i i i 8 . o o @ @ %.-.4.4.4.N ] ] $.$.B v n n A Y hXhXhXdXdXL T ! ! ! P ,.,.,.=.E J I U I ",
"x.W.&X*Xr r r r y 9 i i i i 8 . @ @ @ @ %.*.>.4.*.N ] $.$.$.B n n n Y Y hXkXkXkXhXP Q <.M.<.P ,.=.X.W Y 2 J J J ",
"E.W.~.&Xr r r r t 9 i i i i t . @ @ & & %.4.4.4.0.C $.$.$.&.B v n A Y Y kXkXlXkXkX! ! M.Z.1.P ,.,.E W Y 1 2 x u ",
"E.W.~.&Xr r r t t 9 v v v v q . @ @ @ & -.4.>.0.0.C $.$.$.*.C n n Y Y Y hXkXlXlXlXO.<.M.Z.M.P ,.,.W E Y 2 2 2 2 ",
"W.!.*X*Xt y y y y 9 m v m m q @ @ * & & 2.>.4.0.0.C $.$.*.*.C n Y V Y Y dXkXlXbXvXM.Z.Z.Z.M.O.1.,.=.W E 2 < 1 < ",
"@.@.2.3.) ` ' ' ` # o & @ @ . [ [ [ o.%.s.r.f.f.f.N G ` ] ] ` >XwX8X0X0XI ! / / M.S.}.}.}.S.V.<.X.E E I 3 * @ @ ",
"5.6.w.6.' -.[ [ %.= ; * ; * = %.-.>.4.%.I.I.I.I.R.) $.$.$.$.[ tXtXtXdXrXU M./ Z.Z.H.oXoX.X}.V.1.,.W Q T 4 ; * * ",
"i.5.s.5.[ [ [ [ 2.9 > > ; & & >.4.*.4.*.I.U.U.R.^.` &.&.&.&.[ tXtXyXuXdXQ M.Z.S.S.}.$X$XoX}.C.1.! W W T 4 4 * & ",
"w.s.s.s.[ -.2.-.-.9 < > < > = 0.4.0.4.4.U.U.U.R.R.] >.>.*.*.o.yXyXyXuXdXQ M.Z.S.S. X%X%XoX$XC.M.,.W W T 5 ; * @ ",
"s.s.f.f.%.-.-.-.-.- 5 5 5 < - w.0.0.0.4.U.U.R.R.^.| q.q.9.>.-.tXyXuXrXdXQ M.Z.S.[.}.%X%X%XoXC.Z.<.! W T 4 ; * * ",
"s.s.f.f.-.2.2.2.-.0 5 k k k u r.w.w.0.0.R.R.R.Q.^.o.q.q.q.>.-.yXyXuXdXdX! M.Z.S.S.}.oX$X$XoXC.A.M.<.X.W 5 4 4 > ",
"p p d f f f f ( ( 0 a z z L z z ( f N z j.z.p.j.j.+.6.6.6.6. .i.r.s.h.j.} O.1.M.C.c.c.c.v.M.c.K.J.h.8.3.g 3 * @ ",
"C C C ) 2.2.4.2.2._ 4.8.h.l.7.;.X.X.X.W hXfXfXdXsXXXeXtXeXwX!.).'.'.'.].L.{.XXXX+X^ U K ^ ^ D.kXhXhXtXwXI I H c ",
"C C ) F 2.4.5.4.5._ 4.e.k.T.i.1.,.;.X.X.hXhXfXdXsX*XwXtXwXwXQ.).).'.'.].L.T.XXXX.XU K J K ^ V.kXgXuXtX7XI H H u ",
"C C C ` 2.0.5.w.s. .e.h.T.T.F.1.1.<.<.,.kXhXhXfXdX*XeXeXwXwXQ.).).'.'.].L.T.XXXXXXK x x 6 J O.dXdXtXwX6XJ H c 2 ",
"F F F ` 4.5.w.e.e.+.h.l.T.|.h.A.1.1.1.1.kXkXhXfXfX*X>XwXeX>XE.).).).'.].P.{.{.{.P.J x 6 6 6 T tXtXtXwX].n c c 1 ",
"F ` ] | 5.w.r.r.f.#.T.T.XXXXF.A.V.8.A.A.lXlXkXhXfX*X>XwX>X>XE.).).).'.].L.P.P.L.P.x 6 6 < 5 L >XwX>X7X_.c c 1 1 ",
"N Z Z | 2.4.6.i.d.#.J.|.|.,XH.C.V.V.C.D.5XpXpX0X0Xx.(.(.(.(.d.I.Y.Y.R.R.>.8.;.9.>.< < > > > a ).^.^.^.I.1 , , & ",
"/.`.`.=XrXdXdXfXjX5XnXnXbXvX4Xn.^ b.b.B.cXcXlXkXkXo.>.>.:.:.Z &.:.9.9.q.q.q.9.:.:.R :.~ ~ ~ M &.:.:.:.R G D S n ",
"/.`.`.-XrXdXfXkXcX5XMXMXnXbX4XB.B.B.B.B.lXlXjXkXkXo.:.:.&.&.F :.:.>.9.>.9.9.:.&.:.F ~ ~ ~ ~ B $.=.:.~ ~ G S S B ",
"!.`.=X-XaXdXfXlXcX5XMXMXmXnX4XB.B.B.B.B.jXkXkXhXhX+.:.:.:.:.Z $.:.:.&.:.:.:.$.~ ~ D ~ ~ ~ G v ~ ~ ~ ~ Y G S S v ",
"/.=X-X-XaXfXhXjXvX5XMXMXmXnX5Xn.B.B.B.N.kXhXkXhXhX;.=.>.:.:.D &.:.$.&.$.~ $.~ G ~ V G G G ~ i ~ G G G D S S B B ",
"(.=X-X:XfXkXkXlXcXzXMXMXMXmXxXb.b.n.B.n.kXhXhXhXhX@.>.>.>.:.Z $.$.$.$.~ ~ ~ G G G B G G S G i S G G F V S B S B ",
"`.-X-X:XsXjXkXcXcXzXMXMXMXMXxX^ / ^ b.b.kXkXhXfXkX3.4.9.>.=.Z =.$.~ $.G G G G G G C ] ] G G s S D D V B B B B n ",
"F R ....;.7.t.A.F.D. X3X3X3X#X#X X X{.{.{.h.t.q.8.,XjXkXsXsXz.@ @ @ * @ aXaXaXaXaX*X>X;X;X;Xl./.^.^.R.Y.-.%.[ ] ",
"F R ..X.;.8.t.t.G.D. X3XiXiX3X3X%X+X|.{.{.k.y.t.t.2XcXcXkXhXz.# * @ @ @ fXfXdXfXfX=XrXeX>XeXx._.).^.!.Y.%.%.[ [ ",
"Z R R ..;.7.7.7.h.V. X3XiXiX3X3X3X+X|.{.T.k.y.y.y.2XbXcXkXhXz.& * @ @ @ fXfXdXdXfX=XeXeX9X9Xl.^.Q.Q.Q.Y.%.%.[ ] ",
"M Z R | ..;.8.7.k.D.OX1XiXiX#X3X1XOX{.{.{.k.k.k.t.4XcXkXkXhXz.@ @ @ + + dXfXdXdXaX*X9X>X9X>Xz.Q.Q.Q.Q.I.%.%.[ ] ",
"b V V R ..;.;.7.A.F.@X3X3XiX#X@XOXOX{.k.k.k.k.t.t.2XkXhXdXdXl.@ @ @ + . fXdXdXdXdX*X;X;X;X;Xj.Q.Y.R.Y.g.%.[ [ ` ",
"m V L | O.3.;.7.K.H.1X%X3XiX#X$X.X|.{.G.k.k.k.t.q.2XhXsXdXdXj.@ @ @ + . dXdXdXdXaX*X;X;X=X;Xd.Q.R.Y.l.l.[ [ ` ] ",
"N {  .+.0 g g k z m.H.K.K.K.H.,XJ.J.F.z.J.z.z.z.j.a.&XW.x.x.} # O # # #  . . . .' ( _ _ _ _ p d d f f a X O # X ",
"s.f.Y.Q.4 4 4 l K m.OX%X1X1X|.uX0X6X6X6XyXrXdXrX9X<XdXeX0X8Xd.v c v v 1 $.] ] ] ] ` %.[ %.%.s C C C C m $ o & o ",
"e.s.f.Q.* 3 4 6 l V. X@X1X@X}.qX6X-X`.<X0XeXrX9X;X*XrX9X8X8Xi.v y v v v ] ] ] ] ] ) [ %.%.%.m C C m C m & o & o ",
"6.s.f.Y.* 3 4 6 l c.|.OXOX.XF.0X=X(./.Q.8X8X8X;X=X*X9X9X8X8Xi.v v 1 y y ] ] ] ` ] ) $.%.[ -.d C C B m m & & o o ",
"6.w.s.Y.+ 3 4 6 l O.G.|..X|.F.7X(.Q.E.Q.7X;X=X;X=X&X9X9XwX8Xi.i v v v y ] ] ] ] ` ) [ [ [ -.s C C m C m o & & o ",
"6.6.r.s.+ * 4 5 h P t.k.G.G.7.=X(.I.E.Y.;X=X*X=X=XW.eX9X8X8Xi.i 1 v i i ] ] ] ] ` ) [ [ [ ] s C m m m s o $ X X ",
" .]  .o.. + * 3 3 z } ..#.X.} W.l.d.i.2.l.d.d.l.l.p.~.~.~.~.+.r 8 , q q N N m m m p ) C ) ( w s s s s t . . . X ",
"r , , , u b L L L 0 h k J k z rXrX>X;X=Xm m C ) ' 3.f.I.f.f. .[ $.] [ [ & & & o o N ` ` ` ` f i.u.5.5.@.%.%.2.2.",
"y r , r u b L b L - h h h j 0 eXeX;X;X=Xm m m C F @.l.f.f.r. .] ] ] ` ` & & o & o N ` ` ` ` ( 2.5.2.2.@.[ -.2.2.",
"y , r , y b b b b * < < h 6 0 eX;X;X*X*Xs m m C Z @.I.f.f.s.' [ ] ` ] ) & & o o o d ` ) ` ) f 5.2.@.2.@.' @.2.2.",
", , , , u y y y i + > > < 0 > 7X;X=X*X/.s s s m C [ s.f.r.s.' ] ` ` ) ) o o o o o d ` ) ) ) d 5.u.@.@.@.' ' ' @.",
", , : , r y v y u + > > > 5 0 =X=X*X(.Q.t s s m m ' s.s.s.w.' ` ` ` ) C . o . . . d ) ) ) ) d 2.@.@.@. .' ' ' ' ",
": % % : , , r r u X & & ; > 0 =X*X(.!.I.s t t m m _ w.w.s.w._ ` ) ) C C . . . . . d ) C ) ( d @.@.@.+. .' ' ' ' ",
"% % $ % o o & & =  ./.&X!.Q.6.u , , % $ s s s s s f ' ` ] ` e           t 8 t t t O 7 7 8 8 e j.j.j.p.p.$ $ $ O ",
"% $ $ : o & & $ &  .Q./.Q.!.6.u , r % % s s s s m d ` ` ` ` p           t t t r t O 8 7 8 8 w j.j.j.j.j.$ 7 $ $ ",
"= = = : o & & o & { Q.Q.E.E.3.r r % % 8 s s s m m d ` ` ` ` w           t t t 8 8 O 7 7 7 7 w j.j.p.j.p.$ $ $ $ ",
"$ $ $ = o o o & o { E.E.Y.E.#.r r % % 8 s s s m s p ) ` ) ` t .         8 t t t t O 7 $ $ $ w j.j.j.j.p.$ $ $ O ",
"$ & = = o o o o & ) l.I.l.l.+.q q : % : m m m s m p ) ) ) ) w           8 t t 8 8 $ $ $ $ $ w p.p.p.p.i.$ $ O X ",
"$ O $ $ . o . o @ ( l.d.s.i. .% % : = : m s s s s p ) ) ) ) t           8 t t t t X $ $ $ $ w s.p.p.u.u.O O X X "
};
