/* XPM */
static char *a9e62e3c67674f2386ddf32518476ab1cGo5cKjbVnIFbUZR[] = {
/* columns rows colors chars-per-pixel */
"31 40 176 2 ",
"   c None",
".  c #0D0D0C",
"X  c #18100F",
"o  c #081C11",
"O  c #151615",
"+  c #1B1A16",
"@  c #1C1D1C",
"#  c #1F1211",
"$  c #10110A",
"%  c #211F1D",
"&  c #1A2816",
"*  c #0B2D18",
"=  c #28251E",
"-  c #3F201E",
";  c #242424",
":  c #2C2C2C",
">  c #282727",
",  c #322B26",
"<  c #302F2E",
"1  c #35312A",
"2  c gray19",
"3  c #40130E",
"4  c #411A16",
"5  c #7F0F07",
"6  c #75160B",
"7  c #660A04",
"8  c #79231C",
"9  c #513F34",
"0  c #4E3A36",
"q  c #6F2620",
"w  c #05401C",
"e  c #19451A",
"r  c #0B4120",
"t  c #1F4128",
"y  c #025421",
"u  c #006A29",
"i  c #00702B",
"p  c #51452E",
"a  c #49433D",
"s  c #684B32",
"d  c #7D4A33",
"f  c #635637",
"g  c #77633E",
"h  c #4C4947",
"j  c gray32",
"k  c #654D42",
"l  c #62584D",
"z  c #645C52",
"x  c #7D6B41",
"c  c #6B6155",
"v  c #71675B",
"b  c #746A5D",
"n  c #7A6C56",
"m  c gray43",
"M  c #7A6E60",
"N  c #7D7163",
"B  c #656879",
"V  c #75757B",
"C  c #777777",
"Z  c #8B0F06",
"A  c #9B0F04",
"S  c #A21005",
"D  c #BD1206",
"F  c #AE2A20",
"G  c #A9343F",
"H  c #C51205",
"J  c #C61508",
"K  c #C6180B",
"L  c #C91E12",
"P  c #C51F13",
"I  c #CA2A1E",
"U  c #CD2F24",
"Y  c #C93329",
"T  c #D03A2F",
"R  c #D03D32",
"E  c #CF473D",
"W  c #D24339",
"Q  c #9D3C4F",
"!  c #A73946",
"~  c #A84E4F",
"^  c #BF5E5E",
"/  c #B56159",
"(  c #9B7070",
")  c #A86660",
"_  c #D54F46",
"`  c #D45C54",
"'  c #DA645C",
"]  c #CC6664",
"[  c #D06666",
"{  c #D46D66",
"}  c #E07D76",
"|  c #9C8852",
" . c #AB905C",
".. c #A38C54",
"X. c #998B7A",
"o. c #989C7F",
"O. c #AF847C",
"+. c #AA917E",
"@. c #DC837C",
"#. c #E1847D",
"$. c #3F5BAB",
"%. c #3B5EB1",
"&. c #625A95",
"*. c #6D6F80",
"=. c #717280",
"-. c #465BA6",
";. c #5F75B6",
":. c #3972C9",
">. c #497DCE",
",. c #5484CE",
"<. c #5F8BD0",
"1. c #83848D",
"2. c #8A8B94",
"3. c #97979A",
"4. c #AA9783",
"5. c #BB9E8A",
"6. c #A78885",
"7. c #B3A28E",
"8. c #B6A591",
"9. c #9D9DA5",
"0. c #A5A5A5",
"q. c #ABABAB",
"w. c #BBB1A5",
"e. c #B4B0AD",
"r. c #ABACB1",
"t. c #BEA4B3",
"y. c #B3B3B4",
"u. c #BCBABA",
"i. c #DC8983",
"p. c #D79998",
"a. c #C0AE98",
"s. c #C6B29C",
"d. c #DDAEAA",
"f. c #DFA9A5",
"g. c #CCBAA4",
"h. c #DEB1AE",
"j. c #EAA6A1",
"k. c #E1ADAA",
"l. c #EAA9A4",
"z. c #EEBDBA",
"x. c #E1B8B5",
"c. c #FABBA3",
"v. c #DAC5AC",
"b. c #E3CDB3",
"n. c #FACFB5",
"m. c #E7D1B7",
"M. c #EDD6BB",
"N. c #E8D2B7",
"B. c #F9D7BB",
"V. c #FBC8AC",
"C. c #8CACDD",
"Z. c #9DB6DB",
"A. c #A9ADCC",
"S. c #BCBCC0",
"D. c #CEBBC4",
"F. c #ACC4E9",
"G. c #C6C6C6",
"H. c #CDCDCD",
"J. c #D5D5D5",
"K. c #EAC4C2",
"L. c #F1C5C2",
"P. c #F6DEC2",
"I. c #EBDCDB",
"U. c #F6D9D6",
"Y. c #FCE4C7",
"T. c #FCE5C8",
"R. c #EBE0DF",
"E. c #F8E0DE",
"W. c #D6DEEB",
"Q. c #D5E1F3",
"!. c #EEEDED",
"~. c #F8ECEB",
"^. c #FBF0EF",
"/. c #F3F2F3",
"(. c #FDFDFD",
"). c #F6F8FA",
/* pixels */
"                                                              ",
"                                                              ",
"                                                              ",
"                @ 2 2 2 > O                                   ",
"            > 2 2 : 2 2 2 > 2 >                               ",
"          @ 2 : 2 2 b v h 8.X.> >     B 2.y.0.0.0.3.          ",
"        @ ; : > l M.Y.T.T.T.Y.Y.v     V r.J.q.0.0.3.          ",
"        : 2 2 @ Y.8.T.T.T.T.Y.Y.M.@   V S.H.0.0.0.2.          ",
"      @ 2 2 : z N v.4.T.P.Y.Y.4.Y.b   V 9.9.2.1.1.*.          ",
"      ; > : > P.T.T.T.v.v.Y.N.T.T.7.    =.B , 0               ",
"      O : @ @ T.Y.l 5.m.Y.Y.Y.( b b.          s               ",
"        ; % @ Y.Y.Y.P.& 7.Y.Y.M.+.1 b.        d               ",
"        @ @ @ T.Y.z k n.Y.Y.Y.Y.B.c.5.        4.              ",
"        @ N.b.P.T.n.V.P.g.u.e.P.Y.Y.s.    f o.p M             ",
"        @ Y.Y.Y.P.Y.Y.b.[ [ ~ s.T.T.X.  g = o   X             ",
"          : z M.T.Y.Y.) [ [ [ v.T.T.O o O .                   ",
"        @ : = a Y.T.Y.( ] [ ^ U.Y.1 w i                       ",
"            . + = n g.m.w.w.s.z O & *                         ",
"              g ..s q [ p.k.d.6.t w @                         ",
"              ..- I @.!.!.!.!.R.x.O.y                         ",
"            o & J m.).l.f.x.K.!.!.k.^                         ",
"            u H #.(._ { s.D.h.d.I./.`                         ",
"            e H (.` Y ,.C.W.Z.p.i./.i.F                       ",
"            6 L (.J &.).(.)./.A.` /.m.L                       ",
"            S U (.H -.:.(.(.,.;.Y ~.z.K                       ",
"            A L (.J ! F.C.Q.>.! L (.#.D                       ",
"            7 H (.l._ ! $.%.Q W } (.L Z                       ",
"              H ` (.j.J H H H [ (.z.K #                       ",
"                R j.(.(.^.~.(.(.U._ 8 + O                     ",
"                - J J #.E.~.L.T J 6 @ O O O                   ",
"              f  .x - S H H D 5 X O O + p g ,                 ",
"              > @ X . X 0.G.y.m > O + O @ + .                 ",
"            : y.G.C O O 3.G.G.G.G.G.G.G.G.S.                  ",
"              G.G.q.j j v.G.G.G.G.G.G.G.G.                    ",
"          G.G.G.G.G.G.G.G.G.G.G.G.G.G.G.                      ",
"          G.G.G.G.G.G.G.G.G.G.G.G.G.G.G.                      ",
"        G.G.G.G.G.G.G.G.G.G.G.G.G.G.      G.G.G.              ",
"          G.G.G.G.G.G.G.G.G.G.G.G.  G.G.G.G.G.G.              ",
"              G.G.G.G.G.G.H.                                  ",
"                                                              "
};
