/* XPM */
static char *b9dc8e14cd334be8d2d910bfb705fcd5dxnAecIHywU7HVaE[] = {
/* columns rows colors chars-per-pixel */
"50 50 179 2 ",
"   c None",
".  c #0E0303",
"X  c #140505",
"o  c #160807",
"O  c #170909",
"+  c #1B0B0B",
"@  c #210E0E",
"#  c #23100F",
"$  c #220F10",
"%  c #251211",
"&  c #2A1514",
"*  c #2E1917",
"=  c #27151C",
"-  c #2E1B1A",
";  c #321716",
":  c #321916",
">  c #391B17",
",  c #341719",
"<  c #341B1A",
"1  c #3B1D1B",
"2  c #34221F",
"3  c #3C211D",
"4  c #392421",
"5  c #411E1C",
"6  c #42221D",
"7  c #4B241E",
"8  c #472520",
"9  c #4C2621",
"0  c #442922",
"q  c #4C2A24",
"w  c #4C2E28",
"e  c #542C25",
"r  c #592D26",
"t  c #562F29",
"y  c #5A2F29",
"u  c #4E312B",
"i  c #5C3027",
"p  c #53322B",
"a  c #5C332A",
"s  c #5C382F",
"d  c #553931",
"f  c #5B3C32",
"g  c #64362D",
"h  c #69362C",
"j  c #66382E",
"k  c #693A2F",
"l  c #643C32",
"z  c #6C3C32",
"x  c #723E32",
"c  c #5E4237",
"v  c #644034",
"b  c #6B4136",
"n  c #67433A",
"m  c #6D4539",
"M  c #6E4A3D",
"N  c #754235",
"B  c #7A4336",
"V  c #744539",
"C  c #7D4639",
"Z  c #734B3C",
"A  c #7C4A3D",
"S  c #6D4F44",
"D  c #754D40",
"F  c #7E4E40",
"G  c #7A5244",
"H  c #804738",
"J  c #844C3D",
"K  c #8B4D3E",
"L  c #8E503F",
"P  c #93503E",
"I  c #904E40",
"U  c #855343",
"Y  c #8C5444",
"T  c #865947",
"R  c #8D5946",
"E  c #855648",
"W  c #8E5749",
"Q  c #845A4A",
"!  c #8B5B4B",
"~  c #925443",
"^  c #9A5644",
"/  c #945946",
"(  c #9C5A46",
")  c #935D4C",
"_  c #9D5D4B",
"`  c #8F5F50",
"'  c #A35B46",
"]  c #AB5D46",
"[  c #A45E49",
"{  c #AB5F49",
"}  c #8E614E",
"|  c #9C604D",
" . c #8D6052",
".. c #8E6A58",
"X. c #946451",
"o. c #9C6552",
"O. c #916956",
"+. c #A4624C",
"@. c #AC634C",
"#. c #AF684F",
"$. c #B16047",
"%. c #B3654C",
"&. c #B9664C",
"*. c #B5694E",
"=. c #BB6A4E",
"-. c #A56651",
";. c #AC6650",
":. c #A46A56",
">. c #AD6A53",
",. c #AE6F59",
"<. c #B16750",
"1. c #B46C53",
"2. c #BB6D52",
"3. c #AE715A",
"4. c #B57056",
"5. c #BC7156",
"6. c #B4735B",
"7. c #BC755A",
"8. c #B7785F",
"9. c #BD785D",
"0. c #BD795E",
"q. c #BF795E",
"w. c #BD7A5F",
"e. c #BF7B5F",
"r. c #BE785D",
"t. c #BC795E",
"y. c #B07761",
"u. c #B57962",
"i. c #B67861",
"p. c #BA7B62",
"a. c #BA7961",
"s. c #BD7B61",
"d. c #BB7C63",
"f. c #BD7C62",
"g. c #C16C4E",
"h. c #C16F52",
"j. c #C27255",
"k. c #C07356",
"l. c #C17356",
"z. c #C57356",
"x. c #C17457",
"c. c #C27557",
"v. c #C57656",
"b. c #C27255",
"n. c #C87355",
"m. c #C07659",
"M. c #C37759",
"N. c #C1775A",
"B. c #C3775B",
"V. c #C57759",
"C. c #C5775A",
"Z. c #C27659",
"A. c #C1785B",
"S. c #C6785B",
"D. c #C5795B",
"F. c #C17A5E",
"G. c #C6795C",
"H. c #C57D5F",
"J. c #C47A5C",
"K. c #C9795A",
"L. c #C97A5A",
"P. c #CB7B5B",
"I. c #C9795A",
"U. c #CF7B58",
"Y. c #CC7959",
"T. c #C97E5C",
"R. c #C97B5C",
"E. c #D07E5D",
"W. c #C17C61",
"Q. c #C57D61",
"!. c #C67F62",
"~. c #C27E64",
"^. c #C57E61",
"/. c #C87E61",
"(. c #CF805F",
"). c #C78465",
"_. c #CD8262",
"`. c #CB8162",
"'. c #C8886C",
/* pixels */
"                                                                                                    ",
"                                                                                                    ",
"                                                                                                    ",
"                                                                                                    ",
"                                                                                                    ",
"                                                                                                    ",
"o.3.d.d.e.i.d.t.y.6.6.7.s.s.p.>.~.6.0.s.6.6.F.i.l < !._.(.R.N.N.@.1.:.+.4.5.6.;.,.1.-.>.%.,.1.4.1.+.",
"a.6.:.7.e.f.p.6.d.~.s.6.7.s.1.,.-.a.7.6.6.e.4.7.T 4 H.!.V.6.5.V.N.V.N.A.5.N.5.5.5.4.1.5.%.@.*.+.1.%.",
"6.s.7.6.s.p.7.3.y.e.s.6.-.8.e.3.i.6.e.3.3.3.t.6.a 4 5.c.4.c.c.5.V.T.r.7.c.5.c.Y.c.5.6.1.*.1.{ %.*.@.",
":.:.! 6.y.y.u.6.p.!.:.6.6.6.:.6.6.,.6.7.7.6.,.7.m 4 4.(.E.V.D.v.n.2.l.2.2.#.-.@.2.;.+.[ ( ;.+.@.=.{ ",
"6.6.,.F.,.0.s.6.e.e.7.p.6.7.1.r.p.1.7.,.7.6.>.N.A 2 Y.-.Y.#.c.c.v.2.Y.l.l.2.5.2.2.;.#.%.&.[ ( ( @.^ ",
"i.6.N.:.7.,.1.6.1.7.,.6.6.7.6.6.N.0.5.5.4.2.A.T./ 4 r.1.D.D.Y.4.2.l.V.5.5.1.z.=.*.1.#.%.*.2.;.[ +.#.",
"* * * * < , < < < - < < < < < < < * * * & & % # % - % % % & # & = % % % % @ $ @ @ @ @ @ + + + O o X ",
"W.0.7.4.7.,.>.>.N.e.7.j w ~.7.'.W._._./.9.e.H.9.t.!.`.t.e.T.1.A.F.!.e.5.y.w p | 6.7.2.2.2.1.,.@.1.1.",
">.7.7.4.4.2.;.7.7.6.:.l p ,.:.7.2.4.0.N.2.1.5.1.5.@.t.7.5.5.r.4.5.N.!.>.5.e n 1.) @.#.@.^ <.( ;.[ @.",
"6.1.1.7.6.1.4.5.>.7.e.V t >.6.>.5.1.:.5.1.#.5.2.c.5.5.1.@.1.1.' 1.1.1.5.6.p z z.1.1.1.%.<.;.:.<.#.^ ",
";.-.<.W 1.5.>.0.4.N.W.z f 7.e.H.7.2.,.,.*.5.+.5.4.,.7.1.,.N.7.1.g.+.2.l.z.g z 5.1.4.2.=.[ :.+.' [ ' ",
"7.6.5.,.N.2.>.7.J.7.0.V d J.7.6.N.6.5.7.r.c.5.7.5.9.7.H.V.D.2.| 4.l.4.7.R 9 V :.1.4.1.-.%.%.<.<._ *.",
",.s.Z.4.>.:.4.5.2.7.,.V l 7.D.Y.7.7.Y.`.4.5.>.#.).5.c.4.N.v.*.1.4.1.5.6.@.f Z 5.1.>._ 1.@.@._ %.@.@.",
"5.4.Z.N./.2.4.;.5.N.#.Y v 6.,.7.6.*.c.6.(.D.c.4.7.7.1.F.0.1.1.H.2.2.2.2.7.b N | >.1.>.%.#.%.| &.@.<.",
"H l j x z x x z g a y 8 w A y e r r g g q a i e a k j h z k h t g r 9 9 6 : 3 i e e 9 r 7 e 9 7 9 e ",
"Q ` ` ` ! E ` W T T ` o.X.U R T ! X.Q ! ! T ..O.d < f M V G m Z F Z b b Z b S b v l l l n N f e c f ",
"4.1.4.7.Z.2.V.Z.I.7.7.F.N.C.l.Z.D.5.Y.5.2.5.5.4.a w c.1.j.2.5.1.h.h.+.@.Y @.+.*.h.2.2.<.&.@.K ;.*.+.",
") 6.<.1.N.V.<.;.1.h.5.z.z.1.h.h.5.4.5.5.2.+.>.w.z p 2.2.=.=.5.g.&.@.2.=.$.1.=.=.@.' ;.%.{ $.' @.@.&.",
",.,.5.7.5.1.;.1.s.2.l.Y l.2.4.2.2.2.l.l.2.1.1.c.b p 5.5.#.2.h.=.h.%.1.=.*.+.@.=.%.%.[ 2.@.%.' $.{ @.",
";.2.1.h.1.1.+.1._ 2.+.2.2.1./ 1.v.5.K 2.l.1.2.;.z p 1.4.2.&.2.=.j.=.#.2.&.[ =.@.2.2.<.&.{ { { ] $.$.",
">.<.2.Z.<.2.Z.1.2.z.1.<.1.V.5.2.z.*.h.j.l.*.V.@.j f n.*.2.g.%.#.=.=.*.+.%.&.*.g.=.&.$.[ %.{ %.] $.{ ",
"1.2.+.>.4.2.2.h.z.l.1.2.5.v.2.1.5.[ v.z.5.l.h.h.A s c.2.h.h.5.g.=.=.g.=.&.$.&.&.%.( %.{ { ' $.' %.' ",
"4.1.<.V.<.5.V.<.2.V.l.<.v.J.(.1.7.5.V.5.N.C.Z.V.U p *.5.=.1.j.h.=.=.=.=.&.@.&.$.{ $.&.{ &.' P ] { ] ",
", , , : 1 < < 1 : 1 1 : 1 < : : : ; * & & & % $ @ * % % @ % @ @ # # # # + # + + + + + + O O X X X . ",
"1.5.1.l.2.Z.K.<.2.N.V.o.< N.@.4.l.5.l.5.N.l.4.1.[ z.1.5.V.2.5.2.7.2.n.4.=./ 3 c.2.g.2.=.*.=.&.&.%.@.",
"2.1.1.4.[ ;.<.;.l.h.7.>.3 v.1.5.5.v.=.5.2.v.5.5.2.2.%.N.2.l.1.&.=.=.4.=.1.L 3 &.g.%.=.&.] ' ' ^ ' { ",
"@.;.@.[ *.2.1.1.&.1.) +.2 2.+.+.@.1.7.1.*.@.1.2.2.;.2.2.2.*.%.1.2.@.=.*.+.Y 3 2.%.%.{ { { &.&.%.{ ' ",
"1.;.1._ #.2.1.1.h.>.@._ 3 5.5./ _ 1.| @.^ J { +.@.2.2.%.2.%.=.2.h.@.' =.@.J 6 ' =.&.%.*.{ @.@.%.&.P ",
"<._ #.1.;.n.>.v.#.l.2.*.4 1.1.1.U <.;.z.2.7.2.>.%.2.h.Z.2.@.@.2.=.2.2.#.*.+.6 2.{ $.%.] &.&.{ &.K ] ",
"2.<.%.2.-.1.2.1.5.7.2.+.2 N.2.h.5.2.5.1.<.2.J.1.h.1.<.=.2.@.{ 1.2.h.2.2./ ( 0 #.*.=.g.&.$.' { $.' P ",
"2.<.2.1.1.2.*.7.F.1.1.+.4 1.#.l.l.2.5.l.5.=.1.h.2.Z.1.5.v.#.1.1.4.7.2.z.h.~ q l.#.g.v.*.@.%.@.$.{ ' ",
"x g V C C H J H H V N q 2 C C N x l z j y k g g a y j k j r a g y a l e e > : 1 7 r 9 > 7 6 ; > : ; ",
"U E U / Y E U ` X.R R | 3.R / U Y F A V m N m b * 3 m b J R / / -.R R W Y / 7.+.( / R K / ~ L | ) I ",
"^ ;.[ _ #.@.[ 2.;.+.*.2.5.=.1.*.@.+.@.%.>.1.n.h.9 w %.2.2.5.#.<.{ { ( =.<.%.' @.@.%.&.&.' _ $.] ' $.",
"<.1.>.4.h.=.4.2.1.Z.[ 1.2.2.=.1.%.*.@.<.2.Z.2.2.8 w 7.{ ;.=.<.&.=.=.%.%.<.;.[ ' @.$.' ^ %.] [ ( ' K ",
"1.<.^ 1.1.2.<.1.1.1.[ 1.1.2.( 1.%.*.@.2.1.2.5.5.s t 5.<.<.%.@.2.[ I ^ ] { ] ' ~ ' @.' P [ _ [ ~ ~ ( ",
"<.+.<.;.+.<.5.2.4.<.[ ;.1.;.<.;.1.2.l.2.2.2.#.[ q w ( =.%.=.*.' [ ^ %.;.<.[ %.[ ' ] @.( [ { ] ~ ] ^ ",
";.<.;.<.1.1.>._ 4.1.,.<.h.>.1.=.1.1.1.;.h.>.<.+.w u 1.h.<.@.@.;.@.<.( <.;.@.;.;.@.%.@.' ] ( ( ] { ~ ",
"                                                                                                    ",
"                                                                                                    ",
"                                                                                                    ",
"                                                                                                    ",
"                                                                                                    ",
"                                                                                                    "
};
